<?xml version="1.0" encoding="utf-8"?>
<!-- Svg Vector Icons : http://www.onlinewebfonts.com/icon -->
<!DOCTYPE svg PUBLIC "-//W3C//DTD SVG 1.1//EN" "http://www.w3.org/Graphics/SVG/1.1/DTD/svg11.dtd">
<svg version="1.1" xmlns="http://www.w3.org/2000/svg" xmlns:xlink="http://www.w3.org/1999/xlink" x="0px" y="0px" viewBox="0 0 1000 1000" enable-background="new 0 0 1000 1000" xml:space="preserve">
<metadata> Svg Vector Icons : http://www.onlinewebfonts.com/icon </metadata>
<g><g transform="translate(0.000000,512.000000) scale(0.100000,-0.100000)"><path d="M4403.9,5016c-334.6-48.1-540.4-134.6-678.8-286.5c-150-163.5-163.5-217.3-173.1-715.4l-7.7-428.8H2065.4H586.6V-597.4V-4780H5000h4413.4v4182.6v4182.6H7884.6H6355.8v303.8c0,165.4-9.6,365.4-19.2,444.2c-46.2,350-228.8,538.5-619.2,638.5c-142.3,36.5-223.1,42.3-707.7,46.1C4707.7,5021.8,4436.6,5019.8,4403.9,5016z M5730.8,4621.8c215.4-88.5,259.6-211.5,259.6-732.7v-303.8H4951.9H3913.5v382.7c0,380.8,0,382.7,53.8,484.6c63.5,121.2,161.5,180.8,340.4,207.7c63.5,9.6,384.6,15.4,711.5,13.5C5603.8,4669.8,5617.3,4667.9,5730.8,4621.8z M3544.3,2762.2l3.8-448.1l178.8,5.8l176.9,5.8l5.8,448.1l3.8,446.1l1034.6-3.8l1032.7-5.8l5.8-448.1l3.8-448.1l178.8,5.8l176.9,5.8l5.8,448.1l3.9,446.1h1346.1H9048V-597.4v-3817.2H5000H952v3817.2v3817.2l1294.2-3.8l1292.3-5.8L3544.3,2762.2z"/></g></g>
</svg>