<svg id="Group_93" data-name="Group 93" xmlns="http://www.w3.org/2000/svg" width="82" height="76.016" viewBox="0 0 82 76.016">
  <path id="Path_42" data-name="Path 42" d="M66.385,53.922H56.857V45.108h2a1.2,1.2,0,0,0,1.2-1.2V31.095a1.2,1.2,0,0,0-1.2-1.2H52.041c-.107-6.042-1.219-11.211-9.2-11.211-5.03,0-9.648,3.028-11.614,4.9a7.579,7.579,0,0,0-2.4,0c-1.966-1.873-6.584-4.9-11.614-4.9-7.98,0-9.092,5.17-9.2,11.211H1.2a1.2,1.2,0,0,0-1.2,1.2V43.907a1.2,1.2,0,0,0,1.2,1.2h2V56.723a1.2,1.2,0,0,0,2.4,0V45.168H22.422v26.37H5.605V61.528a1.2,1.2,0,0,0-2.4,0V85.552a1.208,1.208,0,0,0,1.2,1.2h5.35a9.143,9.143,0,0,0,18.128,0H55.719a9.143,9.143,0,0,0,18.128,0H80.8a1.2,1.2,0,0,0,1.2-1.2V69.537A15.633,15.633,0,0,0,66.385,53.922Zm-1.2,2.4V63.53H56.857V56.324ZM57.656,32.3v10.41H37.637V32.3Zm-3.2,12.873v26.37H37.637V45.168ZM42.843,21.084c3.765,0,4.981,1.259,5.619,2.355.9,1.545,1.13,3.95,1.176,6.454H37.54a7.624,7.624,0,0,0-3.708-5.383A16,16,0,0,1,42.843,21.084ZM24.824,42.706V32.3h10.41v10.41Zm10.41,2.462v26.37H24.824V45.168ZM30.029,25.889a5.213,5.213,0,0,1,5.064,4H24.965A5.213,5.213,0,0,1,30.029,25.889ZM11.6,23.44c.639-1.1,1.855-2.355,5.619-2.355a16,16,0,0,1,9.01,3.425,7.623,7.623,0,0,0-3.709,5.384h-12.1C10.467,27.39,10.7,24.984,11.6,23.44ZM2.4,42.706V32.3h20.02v10.41ZM18.819,92.3a6.743,6.743,0,1,1,6.743-6.743A6.751,6.751,0,0,1,18.819,92.3Zm45.964,0a6.743,6.743,0,1,1,6.743-6.743A6.751,6.751,0,0,1,64.783,92.3ZM79.6,84.351h-5.75a9.143,9.143,0,0,0-18.129,0H27.884a9.143,9.143,0,0,0-18.129,0H5.605V73.94h50.05a1.2,1.2,0,0,0,1.2-1.2V65.933h9.528c1.763,0,3.414,1.51,5.324,3.259,2.175,1.99,4.611,4.216,7.889,4.666V84.351Zm0-12.93c-2.4-.466-4.362-2.259-6.267-4-1.77-1.619-3.591-3.285-5.745-3.756V56.381A13.229,13.229,0,0,1,79.6,69.537Z" transform="translate(0 -18.682)" fill="#fff"/>
</svg>
