<svg xmlns="http://www.w3.org/2000/svg" width="72.985" height="72.985" viewBox="0 0 72.985 72.985">
  <g id="guarantee" transform="translate(0 0)">
    <g id="Group_102" data-name="Group 102" transform="translate(15.917 16.8)">
      <g id="Group_101" data-name="Group 101">
        <path id="Path_64" data-name="Path 64" d="M134.894,113.724a1.353,1.353,0,0,0-.78-.4v.041l-12.584-1.827L115.9,100.077a1.353,1.353,0,0,0-2.422,0l-5.629,11.406L95.267,113.31a1.353,1.353,0,0,0-.744,2.314l9.106,8.876-2.151,12.529a1.353,1.353,0,0,0,1.962,1.421l11.244-5.9,11.258,5.913a1.353,1.353,0,0,0,1.962-1.421l-2.151-12.529,9.106-8.876A1.353,1.353,0,0,0,134.894,113.724Zm-11.537,9.355a1.353,1.353,0,0,0-.392,1.191l1.8,10.54-9.472-4.979a1.353,1.353,0,0,0-1.258,0l-9.472,4.979,1.8-10.54a1.353,1.353,0,0,0-.392-1.191l-7.658-7.455,10.581-1.543a1.353,1.353,0,0,0,1.015-.744l4.776-9.553,4.736,9.58a1.353,1.353,0,0,0,1.015.744l10.581,1.543Z" transform="translate(-94.108 -99.327)" fill="#fff"/>
      </g>
    </g>
    <g id="Group_104" data-name="Group 104" transform="translate(0 0)">
      <g id="Group_103" data-name="Group 103" transform="translate(0 0)">
        <path id="Path_65" data-name="Path 65" d="M72.715,34.774l-5.859-7.239.88-9.187a1.353,1.353,0,0,0-.839-1.353l-8.579-3.5L54.475,5.1a1.353,1.353,0,0,0-1.421-.771L43.921,5.683,36.4.271a1.353,1.353,0,0,0-1.624,0L27.535,6.13,18.348,5.25a1.353,1.353,0,0,0-1.353.852l-3.5,8.565L5.1,18.51a1.353,1.353,0,0,0-.771,1.421l1.353,9.133L.271,36.587a1.353,1.353,0,0,0,0,1.624L5.994,45.45l-.879,9.187a1.353,1.353,0,0,0,.852,1.353l8.7,3.5,3.843,8.389a1.353,1.353,0,0,0,1.421.771L29.064,67.3l7.523,5.412a1.353,1.353,0,0,0,1.624,0l7.239-5.724,9.187.88a1.353,1.353,0,0,0,1.353-.839l3.5-8.714,8.389-3.843a1.353,1.353,0,0,0,.771-1.421L67.3,43.921,72.715,36.4A1.353,1.353,0,0,0,72.715,34.774ZM64.745,42.8a1.353,1.353,0,0,0-.23.974l1.258,8.66-7.97,3.64a1.354,1.354,0,0,0-.69.731L53.88,64.921,45.166,64.1a1.353,1.353,0,0,0-.961.284l-6.874,5.412L30.2,64.718a1.353,1.353,0,0,0-.785-.257h-.189l-8.66,1.258-3.64-7.956a1.354,1.354,0,0,0-.731-.69L8.078,53.839,8.9,45.125a1.353,1.353,0,0,0-.284-.961L3.207,37.291,8.281,30.16a1.353,1.353,0,0,0,.23-.974l-1.258-8.66,7.97-3.64a1.354,1.354,0,0,0,.69-.731l3.234-8.118,8.714.825a1.353,1.353,0,0,0,.961-.284l6.874-5.412L42.825,8.24a1.353,1.353,0,0,0,.974.23l8.66-1.258,3.64,7.97a1.354,1.354,0,0,0,.731.69l8.118,3.234-.825,8.714a1.353,1.353,0,0,0,.284.961l5.412,6.874Z" transform="translate(0 0)" fill="#fff"/>
      </g>
    </g>
  </g>
</svg>
