<svg xmlns="http://www.w3.org/2000/svg" width="64.207" height="71.465" viewBox="0 0 64.207 71.465">
  <g id="like-3" transform="translate(-26)">
    <g id="Group_106" data-name="Group 106" transform="translate(69.27)">
      <g id="Group_105" data-name="Group 105">
        <path id="Path_66" data-name="Path 66" d="M337.4,0A1.4,1.4,0,0,0,336,1.4V7.817a1.4,1.4,0,0,0,2.792,0V1.4A1.4,1.4,0,0,0,337.4,0Z" transform="translate(-336)" fill="#fff"/>
      </g>
    </g>
    <g id="Group_108" data-name="Group 108" transform="translate(37.166 43.549)">
      <g id="Group_107" data-name="Group 107">
        <path id="Path_67" data-name="Path 67" d="M107.4,312a1.4,1.4,0,1,0,1.4,1.4A1.4,1.4,0,0,0,107.4,312Z" transform="translate(-106 -312)" fill="#fff"/>
      </g>
    </g>
    <g id="Group_110" data-name="Group 110" transform="translate(26 14.796)">
      <g id="Group_109" data-name="Group 109">
        <path id="Path_68" data-name="Path 68" d="M90.207,131.962a5.59,5.59,0,0,0-5.583-5.583H74.2a35.052,35.052,0,0,0,2.14-13.325,15.9,15.9,0,0,0-.1-1.6,5.582,5.582,0,0,0-11.163.134v1.4c0,8.828-11.336,13.788-19.891,15.915a4.193,4.193,0,0,0-3.838-2.515H27.4a1.4,1.4,0,0,0-1.4,1.4v33.5a1.4,1.4,0,0,0,1.4,1.4H41.354a4.193,4.193,0,0,0,3.825-2.486q1.063.273,1.973.512a45.272,45.272,0,0,0,14.087,1.974H76.249a5.58,5.58,0,0,0,4.638-8.687,5.6,5.6,0,0,0,2.8-8.378,5.581,5.581,0,0,0,2.781-8.371A5.585,5.585,0,0,0,90.207,131.962ZM42.75,158.482a1.4,1.4,0,0,1-1.4,1.4H28.792V129.17H41.354a1.4,1.4,0,0,1,1.4,1.4Zm41.874-23.729H77.645a1.4,1.4,0,1,0,0,2.792h4.187a2.792,2.792,0,1,1,0,5.583H74.853a1.4,1.4,0,1,0,0,2.792h4.187a2.792,2.792,0,0,1,0,5.583H72.062a1.4,1.4,0,1,0,0,2.792h4.187a2.792,2.792,0,1,1,0,5.583H61.239a42.583,42.583,0,0,1-13.382-1.883q-1.055-.276-2.316-.6V131.686c10.1-2.406,22.333-8.279,22.333-18.707v-1.4a2.792,2.792,0,0,1,5.583,0v0c0,.607.757,8.051-2.279,14.8h-4.7a1.4,1.4,0,0,0,0,2.792H84.624a2.792,2.792,0,1,1,0,5.583Z" transform="translate(-26 -106)" fill="#fff"/>
      </g>
    </g>
    <g id="Group_112" data-name="Group 112" transform="translate(37.166 49.132)">
      <g id="Group_111" data-name="Group 111">
        <path id="Path_69" data-name="Path 69" d="M107.4,352a1.4,1.4,0,0,0-1.4,1.4v11.166a1.4,1.4,0,1,0,2.792,0V353.4A1.4,1.4,0,0,0,107.4,352Z" transform="translate(-106 -352)" fill="#fff"/>
      </g>
    </g>
    <g id="Group_114" data-name="Group 114" transform="translate(52.52 17.587)">
      <g id="Group_113" data-name="Group 113">
        <path id="Path_70" data-name="Path 70" d="M222.979,126H217.4a1.4,1.4,0,0,0,0,2.792h5.583a1.4,1.4,0,0,0,0-2.792Z" transform="translate(-216 -126)" fill="#fff"/>
      </g>
    </g>
    <g id="Group_116" data-name="Group 116" transform="translate(80.436 17.587)">
      <g id="Group_115" data-name="Group 115">
        <path id="Path_71" data-name="Path 71" d="M422.979,126H417.4a1.4,1.4,0,1,0,0,2.792h5.583a1.4,1.4,0,1,0,0-2.792Z" transform="translate(-416 -126)" fill="#fff"/>
      </g>
    </g>
    <g id="Group_118" data-name="Group 118" transform="translate(77.166 5.744)">
      <g id="Group_117" data-name="Group 117">
        <path id="Path_72" data-name="Path 72" d="M398.9,41.56a1.4,1.4,0,0,0-1.974,0l-3.947,3.947a1.4,1.4,0,1,0,1.974,1.974l3.947-3.947A1.4,1.4,0,0,0,398.9,41.56Z" transform="translate(-392.57 -41.151)" fill="#fff"/>
      </g>
    </g>
    <g id="Group_120" data-name="Group 120" transform="translate(57.427 5.744)">
      <g id="Group_119" data-name="Group 119">
        <path id="Path_73" data-name="Path 73" d="M257.48,45.507l-3.947-3.947a1.4,1.4,0,1,0-1.974,1.974l3.947,3.947a1.4,1.4,0,1,0,1.974-1.974Z" transform="translate(-251.15 -41.151)" fill="#fff"/>
      </g>
    </g>
  </g>
</svg>
