<svg xmlns="http://www.w3.org/2000/svg" width="22.151" height="21.291" viewBox="0 0 22.151 21.291">
  <g id="favourite" transform="translate(0.527 0.5)">
    <path id="Path_47" data-name="Path 47" d="M21,17.933a1.827,1.827,0,0,0-1.763-1.279h-5.27l-1.66-5.04a1.826,1.826,0,0,0-1.76-1.274h-.008a1.826,1.826,0,0,0-1.758,1.288L7.172,16.654H1.858A1.854,1.854,0,0,0,.772,20.011l4.3,3.108L3.416,28.145a1.826,1.826,0,0,0,.666,2.076,1.826,1.826,0,0,0,2.181.006l4.307-3.113,4.256,3.108a1.854,1.854,0,0,0,2.859-2.063l-1.616-5.04,4.263-3.113A1.827,1.827,0,0,0,21,17.933Z" transform="translate(0 -10.34)" fill="#f8898a" stroke="#f8898a" stroke-width="1"/>
  </g>
</svg>
